<?xml version="1.0" encoding="UTF-8"?>
<svg xmlns="http://www.w3.org/2000/svg" width="84" height="84" viewBox="0 0 84 84" fill="none">
  <rect width="83.75" height="83.7464" rx="6" fill="#F86161"></rect>
  <path d="M52.8135 62.748H55.8324C61.7148 62.748 63.0687 61.0823 63.0687 57.3864V47.3916C63.0687 44.372 63.5373 42.6022 67.077 41.9773V41.769C63.5373 41.1441 63.0687 39.3743 63.0687 36.3553V26.3605C63.0687 22.6639 61.7148 20.9982 55.8324 20.9982H52.8135" stroke="white" stroke-width="2.66667"></path>
  <path d="M30.9374 20.9985H27.9184C22.0361 20.9985 20.6822 22.6642 20.6822 26.3601V36.3549C20.6822 39.3745 20.2135 41.1444 16.6738 41.7692V41.9775C20.2135 42.6024 20.6822 44.3723 20.6822 47.3912V57.3861C20.6822 61.0826 22.0361 62.7483 27.9184 62.7483H30.9374" stroke="white" stroke-width="2.66667"></path>
  <path d="M35.7031 41.6498H42.6957C44.6298 41.6498 46.099 41.2165 47.1033 40.348C48.1075 39.4801 48.6097 38.2279 48.6097 36.5913C48.6097 34.9548 48.1075 33.7087 47.1033 32.8539C46.099 31.9978 44.6298 31.57 42.6957 31.57H35.7031V41.6498ZM42.6957 43.6211H35.7031V54.1472H33.583V29.5993H42.7329C45.1878 29.5993 47.1523 30.2248 48.6283 31.477C50.103 32.7293 50.8413 34.434 50.8413 36.5913C50.8413 38.3767 50.333 39.8645 49.3164 41.0547C48.2991 42.2449 46.8987 43.0136 45.1134 43.3608L50.3206 54.1472H47.8286L42.6957 43.6211Z" fill="white"></path>
</svg>
