<?xml version="1.0" encoding="UTF-8"?>
<svg xmlns="http://www.w3.org/2000/svg" width="181" height="66" viewBox="0 0 181 66" fill="none">
  <path d="M93.0049 19.1449H97.6794C100.261 19.1449 101.553 18.0569 101.553 15.881C101.553 13.7051 100.261 12.6171 97.6794 12.6171H93.0049V19.1449ZM97.3752 21.2194H93.0049V28.7983H90.793V10.5426H97.708C99.5696 10.5426 101.063 11.022 102.188 11.98C103.313 12.9398 103.875 14.2398 103.875 15.881C103.875 17.1718 103.516 18.2598 102.797 19.1449C102.077 20.03 101.091 20.6386 99.8369 20.9696L104.982 28.7983H102.354L97.3752 21.2194Z" fill="white"></path>
  <path d="M111.675 28.7986H109.462V14.9685H111.675V28.7986ZM109.366 11.8567C109.061 11.5515 108.909 11.1514 108.909 10.6535C108.909 10.1556 109.061 9.75359 109.366 9.44932C109.67 9.14506 110.071 8.99294 110.569 8.99294C111.067 8.99294 111.467 9.14506 111.771 9.44932C112.076 9.75359 112.228 10.1556 112.228 10.6535C112.228 11.1514 112.076 11.5515 111.771 11.8567C111.467 12.1609 111.067 12.3131 110.569 12.3131C110.071 12.3131 109.67 12.1609 109.366 11.8567Z" fill="white"></path>
  <path d="M126.115 27.8302C125.192 28.6591 124.002 29.075 122.546 29.075C121.421 29.075 120.503 28.7707 119.794 28.1612C119.083 27.5536 118.719 26.6224 118.702 25.3685V16.8768H115.936V14.9682H118.702V11.649L120.913 11.0405V14.9682H126.031V16.8768H120.913V24.9812C120.913 25.6451 121.102 26.1476 121.481 26.4887C121.859 26.8299 122.362 27.0004 122.988 27.0004C123.873 27.0004 124.657 26.6584 125.339 25.977L126.115 27.8302Z" fill="white"></path>
  <path d="M140.663 16.0457C141.678 16.9493 142.185 18.2503 142.185 19.9458V28.7971H139.972V20.7203C139.972 19.282 139.663 18.2411 139.045 17.5947C138.427 16.9493 137.603 16.6266 136.57 16.6266C135.85 16.6266 135.163 16.7935 134.509 17.1245C133.854 17.4564 133.319 17.9866 132.905 18.7159C132.491 19.4443 132.282 20.3607 132.282 21.4672V28.7971H130.07V8.60515H132.282V17.0415C132.743 16.2495 133.366 15.6585 134.15 15.2713C134.933 14.884 135.813 14.6904 136.792 14.6904C138.358 14.6904 139.649 15.1431 140.663 16.0457Z" fill="white"></path>
  <path d="M166.676 15.2589C167.479 15.6369 168.129 16.2224 168.626 17.0144C169.124 17.8082 169.374 18.7847 169.374 19.9473V28.7986H167.16V20.1677C167.16 18.9691 166.861 18.0802 166.262 17.4994C165.662 16.9185 164.874 16.6272 163.897 16.6272C163.16 16.6272 162.481 16.8079 161.864 17.1665C161.246 17.527 160.748 18.0517 160.37 18.7432C159.992 19.4347 159.803 20.2608 159.803 21.2197V28.7986H157.591V20.1677C157.591 18.9691 157.29 18.0802 156.691 17.4994C156.093 16.9185 155.303 16.6272 154.326 16.6272C153.663 16.6272 153.017 16.7987 152.39 17.1398C151.763 17.4809 151.247 18.0102 150.841 18.7303C150.435 19.4494 150.232 20.3438 150.232 21.4133V28.7986H148.021V14.9685H149.956L150.095 17.125C150.574 16.3146 151.205 15.7051 151.989 15.3004C152.773 14.8938 153.616 14.6919 154.52 14.6919C155.534 14.6919 156.471 14.9224 157.327 15.3834C158.185 15.8444 158.835 16.5165 159.278 17.4016C159.683 16.5165 160.347 15.8444 161.27 15.3834C162.191 14.9224 163.131 14.6919 164.09 14.6919C165.012 14.6919 165.874 14.8809 166.676 15.2589Z" fill="white"></path>
  <path d="M104.633 41.7981L102.724 43.348C102.171 42.13 101.511 41.2689 100.746 40.7608C99.981 40.2537 98.9336 40.0011 97.6069 40.0011C96.2045 40.0011 95.1036 40.2906 94.3015 40.8715C93.4993 41.4523 93.0982 42.1955 93.0982 43.0981C93.0982 43.6891 93.2541 44.1769 93.5685 44.5641C93.8819 44.9514 94.402 45.2879 95.1303 45.5746C95.8587 45.8595 96.8692 46.114 98.1591 46.3344C100.576 46.7401 102.285 47.3495 103.291 48.1599C104.296 48.9713 104.799 50.0962 104.799 51.5354C104.799 52.5681 104.508 53.4762 103.926 54.2599C103.345 55.0427 102.52 55.6513 101.452 56.0846C100.382 56.5179 99.1466 56.7346 97.7442 56.7346C95.9002 56.7346 94.3291 56.376 93.0291 55.6559C91.7291 54.9367 90.7379 53.9787 90.0547 52.7792L91.9642 51.2302C92.4621 52.3191 93.195 53.1628 94.1632 53.7621C95.1303 54.3614 96.3437 54.6601 97.8005 54.6601C99.2379 54.6601 100.382 54.3973 101.23 53.8727C102.078 53.3462 102.502 52.6049 102.502 51.6461C102.502 50.8347 102.133 50.1893 101.396 49.7089C100.658 49.2304 99.3495 48.8238 97.4676 48.4928C95.0345 48.0687 93.3103 47.4601 92.2961 46.6663C91.2819 45.8743 90.7748 44.7679 90.7748 43.348C90.7748 42.3697 91.0514 41.4671 91.6046 40.6364C92.1578 39.8075 92.9498 39.1482 93.9834 38.6596C95.0151 38.17 96.2137 37.9266 97.5792 37.9266C100.843 37.9266 103.193 39.2165 104.633 41.7981Z" fill="white"></path>
  <path d="M118.364 43.3063C119.312 43.9415 120.055 44.8506 120.59 46.0308L118.488 47.0256C117.897 45.201 116.672 44.2873 114.809 44.2873C113.426 44.2873 112.343 44.7538 111.559 45.685C110.776 46.6163 110.384 47.9015 110.384 49.5436C110.384 51.1848 110.776 52.471 111.559 53.4013C112.343 54.3335 113.426 54.7991 114.809 54.7991C115.879 54.7991 116.74 54.5547 117.396 54.0661C118.049 53.5774 118.478 52.8721 118.682 51.9501L120.728 52.6683C120.248 53.9601 119.512 54.9604 118.516 55.6695C117.52 56.3803 116.303 56.7344 114.865 56.7344C112.78 56.7344 111.144 56.0991 109.955 54.8267C108.766 53.5534 108.17 51.7933 108.17 49.5436C108.17 47.2939 108.766 45.5329 109.955 44.2596C111.144 42.9872 112.78 42.352 114.865 42.352C116.248 42.352 117.414 42.6701 118.364 43.3063Z" fill="white"></path>
  <path d="M135.223 43.7069C136.238 44.6105 136.744 45.9114 136.744 47.607V56.4583H134.531V48.3815C134.531 46.9431 134.222 45.9022 133.605 45.2559C132.987 44.6105 132.163 44.2877 131.13 44.2877C130.41 44.2877 129.723 44.4546 129.068 44.7856C128.414 45.1176 127.879 45.6477 127.465 46.377C127.05 47.1054 126.842 48.0219 126.842 49.1283V56.4583H124.63V36.2663H126.842V44.7027C127.303 43.9106 127.925 43.3196 128.71 42.9324C129.493 42.5452 130.373 42.3515 131.351 42.3515C132.918 42.3515 134.209 42.8042 135.223 43.7069Z" fill="white"></path>
  <path d="M144.294 45.6708C143.502 46.6121 143.104 47.902 143.104 49.5432C143.104 51.1844 143.502 52.4752 144.294 53.4156C145.087 54.3561 146.184 54.8272 147.585 54.8272C148.987 54.8272 150.084 54.3561 150.878 53.4156C151.67 52.4752 152.067 51.1844 152.067 49.5432C152.067 47.902 151.67 46.6121 150.878 45.6708C150.084 44.7303 148.987 44.2601 147.585 44.2601C146.184 44.2601 145.087 44.7303 144.294 45.6708ZM152.496 44.2601C153.685 45.5334 154.279 47.2944 154.279 49.5432C154.279 51.7938 153.685 53.5539 152.496 54.8272C151.306 56.0996 149.669 56.7349 147.585 56.7349C145.503 56.7349 143.865 56.0996 142.676 54.8272C141.486 53.5539 140.893 51.7938 140.893 49.5432C140.893 47.2944 141.486 45.5334 142.676 44.2601C143.865 42.9877 145.503 42.3515 147.585 42.3515C149.669 42.3515 151.306 42.9877 152.496 44.2601Z" fill="white"></path>
  <path d="M161.113 45.6708C160.32 46.6121 159.924 47.902 159.924 49.5432C159.924 51.1844 160.32 52.4752 161.113 53.4156C161.905 54.3561 163.003 54.8272 164.405 54.8272C165.806 54.8272 166.903 54.3561 167.696 53.4156C168.489 52.4752 168.886 51.1844 168.886 49.5432C168.886 47.902 168.489 46.6121 167.696 45.6708C166.903 44.7303 165.806 44.2601 164.405 44.2601C163.003 44.2601 161.905 44.7303 161.113 45.6708ZM169.314 44.2601C170.504 45.5334 171.098 47.2944 171.098 49.5432C171.098 51.7938 170.504 53.5539 169.314 54.8272C168.124 56.0996 166.488 56.7349 164.405 56.7349C162.321 56.7349 160.684 56.0996 159.495 54.8272C158.306 53.5539 157.711 51.7938 157.711 49.5432C157.711 47.2944 158.306 45.5334 159.495 44.2601C160.684 42.9877 162.321 42.3515 164.405 42.3515C166.488 42.3515 168.124 42.9877 169.314 44.2601Z" fill="white"></path>
  <path d="M177.487 52.7525C177.487 53.4532 177.593 53.9372 177.805 54.2037C178.016 54.4711 178.409 54.6057 178.981 54.6057C179.368 54.6057 179.704 54.5771 179.99 54.5227C180.275 54.4665 180.613 54.366 181 54.2185L180.641 56.3474C180.032 56.6065 179.35 56.7346 178.594 56.7346C177.468 56.7346 176.633 56.4304 176.09 55.8218C175.546 55.2142 175.274 54.283 175.274 53.0291V36.266H177.487V52.7525Z" fill="white"></path>
  <path d="M55.6729 64.0176H60.163C68.912 64.0176 70.9256 61.5401 70.9256 56.0431V41.1776C70.9256 36.6865 71.6227 34.0542 76.8873 33.1248V32.815C71.6227 31.8856 70.9256 29.2533 70.9256 24.7631V9.89757C70.9256 4.39964 68.912 1.92221 60.163 1.92221H55.6729" stroke="white" stroke-width="2.66667"></path>
  <path d="M23.1364 1.92221H18.6462C9.89724 1.92221 7.88358 4.39964 7.88358 9.89665V24.7622C7.88358 29.2533 7.18654 31.8856 1.92188 32.815V33.1248C7.18654 34.0542 7.88358 36.6865 7.88358 41.1767V56.0422C7.88358 61.5401 9.89724 64.0176 18.6462 64.0176H23.1364" stroke="white" stroke-width="2.66667"></path>
  <path d="M30.2246 32.6374H40.6248C43.5015 32.6374 45.6866 31.9929 47.1803 30.7012C48.6739 29.4104 49.4208 27.5479 49.4208 25.1138C49.4208 22.6797 48.6739 20.8265 47.1803 19.555C45.6866 18.2818 43.5015 17.6456 40.6248 17.6456H30.2246V32.6374ZM40.6248 35.5694H30.2246V51.2251H27.0713V14.7145H40.6801C44.3313 14.7145 47.2531 15.6448 49.4484 17.5073C51.6419 19.3697 52.74 21.9052 52.74 25.1138C52.74 27.7692 51.9839 29.982 50.4718 31.7523C48.9588 33.5225 46.876 34.6658 44.2206 35.1822L51.9655 51.2251H48.259L40.6248 35.5694Z" fill="white"></path>
</svg>
